<?xml version="1.0" encoding="utf-8"?>
<!-- Generator: Adobe Illustrator 23.0.1, SVG Export Plug-In . SVG Version: 6.00 Build 0)  -->
<svg version="1.1" id="Capa_1" xmlns="http://www.w3.org/2000/svg" xmlns:xlink="http://www.w3.org/1999/xlink" x="0px" y="0px"
	 viewBox="0 0 1388 515" style="enable-background:new 0 0 1388 515;" xml:space="preserve">
<g>
	<path d="M435.6,401.8V424H280v-22.2H435.6z M678.7,401.8c-15.6,14.3-36,22.3-57.2,22.2l0,0l-163.6-0.2v-22H678.7z M909.9,401.8
		l-7.8,22.2l-7.7-22.2H909.9z M835.6,401.8V424H724.4v-22.2H835.6z M1080,401.8V424H968.9v-22.2H1080z M703.8,359.4
		c-1.9,7.8-4.9,15.3-8.9,22.2l0,0H457.8v-22.2H703.8z M924.8,359.4l-7.8,22.2h-29.6l-7.8-22.2H924.8z M835.6,359.4v22.2H724.4v-22.2
		H835.6z M1080,359.4v22.2H968.9v-22.2H1080z M435.6,359.4v22.2H280v-22.2H435.6z M391.1,317v22.2h-66.7V317H391.1z M568.9,317v22.2
		h-66.7V317H568.9z M703.3,317c2,7.2,3,14.7,3,22.2l0,0h-74.7V317H703.3z M939.7,317l-7.8,22.2h-59.4l-7.8-22.2H939.7z M835.6,317
		v22.2h-66.7V317H835.6z M1035.6,317v22.2h-66.7V317H1035.6z M391.1,274.5v22.2h-66.7v-22.2H391.1z M835.6,274.5v22.2h-66.7v-22.2
		H835.6z M1035.6,274.5v22.2h-66.7v-22.2H1035.6z M676.3,274.5c7.4,6.3,13.7,13.8,18.5,22.2l0,0H502.2v-22.2H676.3z M954.6,274.5
		l-7.8,22.2h-89.2l-7.8-22.2H954.6z M896,232.1l6.2,18l6.2-18h127.1v22.2h-66.7v-20.4l-7.2,20.4h-119l-7.2-20.4v20.4h-66.7v-22.2
		H896z M502.2,232.1l192.6,0c-4.9,8.4-11.1,15.9-18.5,22.2l0,0H502.2V232.1z M391.1,232.1v22.2h-66.7v-22.2H391.1z M391.1,189.7
		v22.2h-66.7v-22.2H391.1z M568.9,189.7v22.2h-66.7v-22.2H568.9z M706.3,189.7c0,7.5-1,15-3,22.2l0,0h-71.8v-22.2H706.3z
		 M881.2,189.7l7.7,22.2H768.9v-22.2H881.2z M1035.6,189.7v22.2H915.5l7.7-22.2H1035.6z M435.6,147.3v22.2H280v-22.2H435.6z
		 M694.9,147.3c4,6.9,7,14.4,8.9,22.2l0,0h-246v-22.2H694.9z M1080,147.3v22.2H930.2l7.7-22.2H1080z M866.5,147.3l7.7,22.2H724.4
		v-22.2H866.5z M435.6,104.8v22.2H280v-22.2H435.6z M621.4,104.8c21.2,0,41.6,7.9,57.2,22.2l0,0H457.8v-22.2H621.4z M1080,104.8
		v22.2H945l7.7-22.2H1080z M851.7,104.8l7.7,22.2h-135v-22.2H851.7z"/>
</g>
</svg>
