<?xml version="1.0" encoding="utf-8"?>
<!-- Generator: Adobe Illustrator 23.0.1, SVG Export Plug-In . SVG Version: 6.00 Build 0)  -->
<svg version="1.1" id="Capa_1" xmlns="http://www.w3.org/2000/svg" xmlns:xlink="http://www.w3.org/1999/xlink" x="0px" y="0px"
	 viewBox="0 0 978 208" style="enable-background:new 0 0 978 208;" xml:space="preserve">
<style type="text/css">
	.st0{fill-rule:evenodd;clip-rule:evenodd;}
</style>
<path class="st0" d="M858.3,142.8c-6.5-0.1-11.9,5.1-12.1,11.6c-0.1,6.5,5.1,11.9,11.6,12.1c0.1,0,0.3,0,0.4,0
	c6.5,0,11.8-5.3,11.8-11.8c0,0,0,0,0,0C870.1,148.1,864.8,142.8,858.3,142.8C858.3,142.8,858.3,142.8,858.3,142.8z M858.3,165
	c-5.7,0-10.4-4.6-10.4-10.4c0,0,0,0,0-0.1c0-5.7,4.7-10.4,10.4-10.4c0,0,0,0,0,0c5.7,0,10.4,4.6,10.4,10.4c0,0,0,0,0,0
	C868.7,160.3,864.1,165,858.3,165C858.3,165,858.3,165,858.3,165z"/>
<path class="st0" d="M864.4,151.5c0-1.1-0.5-2.3-1.5-2.9c-1-0.6-2.1-0.6-3.2-0.6h-5.8v13.2h1.6v-6.1h3l3.8,6.1h1.9l-4-6.1
	C862.6,155.1,864.4,154.1,864.4,151.5L864.4,151.5z M858,153.9h-2.5v-4.7h3.8c1.6,0,3.4,0.2,3.4,2.3
	C862.7,154.2,859.9,153.9,858,153.9z M788.9,87.6l24.2-25.8c1.4-1.9,2.1-3.2,2.1-4.4c0-1.9-1.6-2.7-6.8-2.7h-6.1V38.4h66.1v16.3
	h-8.7c-10,0-11.9,1.5-25.9,19.2l-38.3,41.3v25.2c0,6.5,3.3,8.7,12.6,8.7h14.5v15.7h-92.6v-15.7h14.5c9.3,0,12.6-2.3,12.6-8.7v-25.2
	L712,65.3c-7.5-8.7-6.4-10.6-27.2-10.6V38.4h83.7v16.3h-6c-6.1,0-8.6,1.1-8.6,3.4c0,1.9,1.9,3.4,3,4.9l22.8,24.9
	C782.5,90.7,785.8,91.1,788.9,87.6L788.9,87.6z M227.3,38.4h20.2v45.5h-18.6c-1.7-9.1-7.3-12.6-12.5-17.4
	c-9.4-8.6-29.7-15.8-46.7-15.8c-22,0-40.6,6.8-40.6,16.9c0,27.9,125.9,5.7,125.9,58.4c0,27.5-27,42.9-75.4,42.9
	c-16.8,0-42.2-5.2-57.1-13.2c-4.7-2.7-6.7,2.6-7.6,9.2H94.1v-47h18.7c4.1,11.9,9.8,14.4,15.1,19.2c9.1,8.3,30.7,14.4,50.5,14.2
	c29.9-0.3,40.2-6.8,40.2-16.3c0-9.5-10.2-11.8-42.9-16.9l-27.8-4.6c-31.4-4.7-54.2-11.8-54.2-36.8c0-26,28.9-42.3,74.6-42.3
	c19.3,0,35.4,2.6,50.8,11.3C223.3,48.5,227.3,48.8,227.3,38.4L227.3,38.4z M621.4,114.6l0.4-50.6c0-6.6-3.5-8.9-13.3-8.9h-11.6V39.3
	h73.8v15.7H661c-9.9,0-13.3,2.3-13.3,8.9v101.8l-28.9-0.2l-93.5-88.5v64.3c0,6.5,3.5,8.9,13.3,8.9h12.8v15.6h-76.6v-15.6h12.7
	c9.9,0,13.3-2.5,13.3-8.9V64c0-6.6-3.5-8.9-13.3-8.9h-12.7V39.3h66.2L621.4,114.6z M374.3,33.4c-58.8,0-95.6,26-95.6,67.7
	c0,41,36.3,66.8,93.8,66.8c61.1,0,96.6-25.4,96.6-68.8C469.1,60,430.8,33.4,374.3,33.4L374.3,33.4z M373,151.4
	c-32.5,0-51.2-18.8-51.2-51.2c0-31.7,19.5-50.4,52.9-50.4c32,0,50.7,19.2,50.7,51.8C425.3,133.4,406.3,151.4,373,151.4L373,151.4z"
	/>
</svg>
