<svg xmlns="http://www.w3.org/2000/svg" viewBox="0 0 482.19 69.44"><defs><style>.cls-1{fill:#9e8700;}.cls-2{fill:#cca500;}.cls-3{fill:#003787;}.cls-4{fill:#003faf;}</style></defs><title>emtasa</title><g id="Capa_2" data-name="Capa 2"><g id="Capa_1-2" data-name="Capa 1"><polygon class="cls-1" points="301.88 22.8 275.56 22.8 288.72 0 301.88 22.8"/><polygon class="cls-2" points="315.62 46.59 261.81 46.59 269.18 33.84 308.26 33.84 315.62 46.59"/><polygon class="cls-3" points="329.83 68.98 247.62 68.98 255.44 57.64 322 57.64 329.83 68.98"/><path class="cls-4" d="M48.11,47.93H14.37V75.72h37l-.76,4.73H9.26V14.28H49.82V19H14.37V43.2H48.11Z" transform="translate(-9.26 -11.76)"/><path class="cls-4" d="M154.74,50c0-12.95.1-25.34.38-31.95h-.28c-2.65,8.88-16.07,41.49-24.48,62.39h-5C119,64.28,105.12,28,102.09,18h-.19c.48,7.56.66,23,.66,34.32V80.45h-5.1V14.28h7.66c9.07,22.68,20.51,52.36,23,59.83h.19c1.51-4.82,14.74-37.81,24-59.83h7.56V80.45h-5.11Z" transform="translate(-9.26 -11.76)"/><path class="cls-4" d="M225,19H202.77V14.28h49.72V19H230.18V80.45H225Z" transform="translate(-9.26 -11.76)"/><path class="cls-4" d="M353.54,62.67c2,8.79,7.85,14,18.72,14,12.1,0,16.73-6,16.73-13.23,0-7.47-3.31-12.1-17.87-15.69-14-3.5-20-8-20-17.58,0-8.7,6.34-16.83,20.51-16.83,14.56,0,20.71,8.89,21.56,16.92h-5.3c-1.51-7.09-6.14-12.19-16.54-12.19-9.55,0-14.74,4.44-14.74,11.81S360.91,40,373.11,43c18.62,4.63,21.36,12.1,21.36,20,0,9.74-7.09,18.15-22.4,18.15-16.54,0-22.59-9.64-23.82-18.53Z" transform="translate(-9.26 -11.76)"/><path class="cls-4" d="M449.39,57.57,441,80.45h-5.2l24.29-66.17h6.05l25.34,66.17h-5.58l-8.6-22.88Zm26.19-4.73c-7.38-19.66-11.16-29.11-12.48-33.55H463c-1.6,5-5.86,16.73-11.81,33.55Z" transform="translate(-9.26 -11.76)"/></g></g></svg>